<svg width="766" height="282" viewBox="0 0 766 282" fill="none" xmlns="http://www.w3.org/2000/svg">
<path d="M28.98 134.58C31.5 134.86 33.88 135.327 36.12 135.98C38.36 136.54 40.46 137.193 42.42 137.94V142H4.06V137.94C5.92667 137.007 7.84 136.307 9.8 135.84C11.76 135.373 13.6733 134.953 15.54 134.58V51.56C13.3933 51.1867 11.3867 50.72 9.52 50.16C7.65333 49.5067 5.83333 48.8067 4.06 48.06V44H16.66C20.3933 44 24.4533 43.8133 28.84 43.44C33.2267 43.0667 37.4267 42.88 41.44 42.88C46.0133 42.88 50.4933 43.3933 54.88 44.42C59.2667 45.3533 63.14 46.9867 66.5 49.32C69.9533 51.6533 72.7067 54.78 74.76 58.7C76.9067 62.5267 77.98 67.3333 77.98 73.12C77.98 78.6267 76.9067 83.34 74.76 87.26C72.6133 91.18 69.72 94.4 66.08 96.92C62.5333 99.44 58.4733 101.307 53.9 102.52C49.3267 103.64 44.6133 104.2 39.76 104.2C39.2933 104.2 38.5467 104.2 37.52 104.2C36.5867 104.2 35.56 104.2 34.44 104.2C33.32 104.107 32.2467 104.013 31.22 103.92C30.1933 103.827 29.4467 103.733 28.98 103.64V134.58ZM38.5 50.16C36.26 50.16 34.44 50.2067 33.04 50.3C31.64 50.3933 30.2867 50.58 28.98 50.86V96.22C29.4467 96.4067 30.1 96.5467 30.94 96.64C31.8733 96.64 32.8067 96.6867 33.74 96.78C34.7667 96.8733 35.7467 96.92 36.68 96.92C37.6133 96.92 38.36 96.92 38.92 96.92C42.1867 96.92 45.2667 96.5 48.16 95.66C51.0533 94.7267 53.5733 93.28 55.72 91.32C57.96 89.36 59.7333 86.8867 61.04 83.9C62.3467 80.9133 63 77.32 63 73.12C63 65.4667 60.8067 59.7267 56.42 55.9C52.1267 52.0733 46.1533 50.16 38.5 50.16ZM122.878 142H87.4584V137.94C91.1918 136.447 95.0184 135.327 98.9384 134.58V51.56C94.5518 50.9067 90.7251 49.74 87.4584 48.06V44H122.878V48.06C121.292 48.9 119.612 49.6 117.838 50.16C116.065 50.72 114.245 51.1867 112.378 51.56V88.1H156.338V51.56C154.378 51.0933 152.512 50.58 150.738 50.02C149.058 49.46 147.425 48.8067 145.838 48.06V44H181.258V48.06C179.578 48.9933 177.712 49.74 175.658 50.3C173.698 50.7667 171.738 51.1867 169.778 51.56V134.58C171.925 134.953 173.978 135.42 175.938 135.98C177.898 136.54 179.672 137.193 181.258 137.94V142H145.838V137.94C149.198 136.447 152.698 135.327 156.338 134.58V95.38H112.378V134.58C114.245 134.953 116.065 135.42 117.838 135.98C119.612 136.54 121.292 137.193 122.878 137.94V142ZM192.674 93C192.674 85.72 193.654 79 195.614 72.84C197.667 66.5867 200.561 61.22 204.294 56.74C208.121 52.1667 212.787 48.62 218.294 46.1C223.801 43.58 230.054 42.32 237.054 42.32C244.054 42.32 250.307 43.58 255.814 46.1C261.321 48.62 265.941 52.1667 269.674 56.74C273.501 61.22 276.394 66.5867 278.354 72.84C280.407 79 281.434 85.72 281.434 93C281.434 100.28 280.407 107.047 278.354 113.3C276.394 119.46 273.501 124.827 269.674 129.4C265.941 133.88 261.321 137.38 255.814 139.9C250.307 142.42 244.054 143.68 237.054 143.68C230.054 143.68 223.801 142.42 218.294 139.9C212.787 137.38 208.121 133.88 204.294 129.4C200.561 124.827 197.667 119.46 195.614 113.3C193.654 107.047 192.674 100.28 192.674 93ZM207.654 93C207.654 98.9733 208.261 104.62 209.474 109.94C210.781 115.167 212.694 119.74 215.214 123.66C217.734 127.58 220.907 130.707 224.734 133.04C228.561 135.28 233.087 136.4 238.314 136.4C243.074 136.4 247.227 135.28 250.774 133.04C254.321 130.707 257.214 127.58 259.454 123.66C261.787 119.74 263.514 115.167 264.634 109.94C265.847 104.62 266.454 98.9733 266.454 93C266.454 87.0267 265.847 81.4267 264.634 76.2C263.421 70.88 261.554 66.26 259.034 62.34C256.514 58.42 253.341 55.34 249.514 53.1C245.687 50.7667 241.161 49.6 235.934 49.6C230.801 49.6 226.414 50.7667 222.774 53.1C219.227 55.34 216.334 58.42 214.094 62.34C211.854 66.26 210.221 70.88 209.194 76.2C208.167 81.4267 207.654 87.0267 207.654 93ZM359.307 44C359.213 47.7333 359.027 51.5133 358.747 55.34C358.56 59.0733 358.233 62.8533 357.767 66.68H354.127L348.387 51.28H317.867V88.38H340.687L346.147 78.02H349.647C350.207 87.26 350.207 96.6867 349.647 106.3H346.147L340.687 95.66H317.867V134.72H350.067L356.927 117.92H360.427C361.08 121.84 361.547 125.807 361.827 129.82C362.107 133.833 362.153 137.893 361.967 142H292.947V137.94C296.213 136.447 300.04 135.327 304.427 134.58V51.56C302.56 51.1867 300.647 50.72 298.687 50.16C296.727 49.5067 294.813 48.8067 292.947 48.06V44H359.307ZM438.551 44H468.791V48.06C464.871 50.6733 461.044 52.54 457.311 53.66V143.68H449.331L398.511 66.54L393.051 55.62H392.631L393.891 66.54V133.04C397.718 134.067 401.311 135.7 404.671 137.94V142H374.431V137.94C376.111 136.913 377.884 136.027 379.751 135.28C381.711 134.44 383.764 133.693 385.911 133.04V52.82C384.044 52.0733 382.178 51.28 380.311 50.44C378.538 49.6 376.858 48.76 375.271 47.92V44H398.931L443.031 110.5L449.471 122.54H450.031L449.331 110.5V53.66C447.371 52.82 445.458 51.9333 443.591 51C441.818 50.0667 440.138 49.0867 438.551 48.06V44ZM515.47 142H479.63V137.94C483.27 136.26 487.003 135.14 490.83 134.58V51.56C488.963 51.1867 487.097 50.72 485.23 50.16C483.363 49.5067 481.497 48.8067 479.63 48.06V44H515.47V48.06C513.79 48.8067 511.97 49.5067 510.01 50.16C508.05 50.72 506.137 51.1867 504.27 51.56V134.58C506.23 134.953 508.19 135.42 510.15 135.98C512.11 136.54 513.883 137.193 515.47 137.94V142ZM577.429 44H609.629V48.06C608.042 48.7133 606.362 49.3667 604.589 50.02C602.816 50.58 600.996 51.0933 599.129 51.56L574.489 89.5L603.189 134.58C607.669 135.327 611.496 136.447 614.669 137.94V142H577.429V137.94C580.789 136.26 584.336 135.14 588.069 134.58L565.949 99.44L544.669 134.72C546.629 135 548.542 135.373 550.409 135.84C552.276 136.213 554.096 136.913 555.869 137.94V142H523.529V137.94C525.302 137.007 527.029 136.307 528.709 135.84C530.482 135.373 532.209 134.953 533.889 134.58L561.329 92.72L535.009 51.56C533.142 51 531.276 50.44 529.409 49.88C527.636 49.32 525.816 48.7133 523.949 48.06V44H561.049V48.06C559.649 48.62 558.062 49.18 556.289 49.74C554.609 50.3 552.649 50.9067 550.409 51.56L570.009 83.2L589.049 51.56C585.222 50.72 581.349 49.5533 577.429 48.06V44Z" fill="#810606"/>
<path fill-rule="evenodd" clip-rule="evenodd" d="M36.06 135.98C33.82 135.327 31.44 134.86 28.92 134.58V108H15.48V134.58C13.6133 134.953 11.7 135.373 9.74 135.84C7.78 136.307 5.86667 137.007 4 137.94V142H42.36V137.94C40.4 137.193 38.3 136.54 36.06 135.98ZM490.77 108H504.21V134.58C506.17 134.953 508.13 135.42 510.09 135.98C512.05 136.54 513.823 137.193 515.41 137.94V142H479.57V137.94C483.21 136.26 486.943 135.14 490.77 134.58V108ZM449.271 108H457.251V143.68H449.271L425.765 108H441.313L442.971 110.5L449.411 122.54H449.971L449.271 110.5V108ZM304.367 108H317.807V134.72H350.007L356.867 117.92H360.367C361.02 121.84 361.487 125.807 361.767 129.82C362.047 133.833 362.093 137.893 361.907 142H292.887V137.94C296.153 136.447 299.98 135.327 304.367 134.58V108ZM194.154 108C194.546 109.806 195.012 111.573 195.554 113.3C197.607 119.46 200.501 124.827 204.234 129.4C208.061 133.88 212.727 137.38 218.234 139.9C223.741 142.42 229.994 143.68 236.994 143.68C243.994 143.68 250.247 142.42 255.754 139.9C261.261 137.38 265.881 133.88 269.614 129.4C273.441 124.827 276.334 119.46 278.294 113.3C278.861 111.573 279.35 109.806 279.761 108L264.987 108C264.858 108.651 264.72 109.298 264.574 109.94C263.454 115.167 261.727 119.74 259.394 123.66C257.154 127.58 254.261 130.707 250.714 133.04C247.167 135.28 243.014 136.4 238.254 136.4C233.027 136.4 228.501 135.28 224.674 133.04C220.847 130.707 217.674 127.58 215.154 123.66C212.634 119.74 210.721 115.167 209.414 109.94C209.268 109.298 209.13 108.651 209.001 108L194.154 108ZM98.8784 108V134.58C94.9584 135.327 91.1318 136.447 87.3984 137.94V142H122.818V137.94C121.232 137.193 119.552 136.54 117.778 135.98C116.005 135.42 114.185 134.953 112.318 134.58V108H98.8784ZM156.278 108H169.718V134.58C171.865 134.953 173.918 135.42 175.878 135.98C177.838 136.54 179.612 137.193 181.198 137.94V142H145.778V137.94C149.138 136.447 152.638 135.327 156.278 134.58V108ZM385.851 108H393.831V133.04C397.658 134.067 401.251 135.7 404.611 137.94V142H374.371V137.94C376.051 136.913 377.824 136.027 379.691 135.28C381.651 134.44 383.704 133.693 385.851 133.04V108ZM551.253 108H560.726L544.609 134.72C546.569 135 548.482 135.373 550.349 135.84C552.216 136.213 554.036 136.913 555.809 137.94V142H523.469V137.94C525.242 137.007 526.969 136.307 528.649 135.84C530.422 135.373 532.149 134.953 533.829 134.58L551.253 108ZM571.277 108H586.207L603.129 134.58C607.609 135.327 611.436 136.447 614.609 137.94V142H577.369V137.94C580.729 136.26 584.276 135.14 588.009 134.58L571.277 108Z" fill="white"/>
</svg>
